<?xml version="1.0" standalone="no"?>
<!DOCTYPE svg PUBLIC "-//W3C//DTD SVG 20010904//EN"
 "http://www.w3.org/TR/2001/REC-SVG-20010904/DTD/svg10.dtd">
<svg version="1.0" xmlns="http://www.w3.org/2000/svg"
 width="300.000000pt" height="300.000000pt" viewBox="0 0 300.000000 300.000000"
 preserveAspectRatio="xMidYMid meet">
<metadata>
Created by potrace 1.11, written by Peter Selinger 2001-2013
</metadata>
<g transform="translate(0.000000,300.000000) scale(0.100000,-0.100000)"
fill="#000000" stroke="none">
<path d="M1295 2733 c-71 -41 -143 -83 -160 -93 -166 -95 -713 -413 -725 -420
-8 -5 -32 -19 -52 -30 -20 -11 -40 -24 -43 -30 -4 -6 -7 -301 -6 -656 l0 -646
23 -16 c13 -9 37 -24 53 -32 17 -9 120 -68 230 -132 353 -204 649 -374 695
-400 25 -14 62 -36 84 -48 l38 -23 37 19 c20 10 65 36 100 57 35 22 80 48 100
59 20 11 151 87 291 168 140 81 271 157 290 168 181 103 287 165 295 173 6 6
10 242 10 660 l0 650 -380 221 c-209 121 -413 240 -453 264 -40 24 -74 44 -76
44 -2 0 -34 18 -71 41 -93 56 -134 79 -143 79 -4 0 -65 -35 -137 -77z m276
-469 c74 -42 159 -90 189 -107 30 -16 67 -38 82 -49 14 -10 29 -18 32 -18 2 0
31 -15 63 -34 32 -18 90 -52 130 -75 l72 -41 -56 -90 -56 -90 -61 34 c-34 18
-113 63 -176 98 -146 82 -187 105 -281 157 l-77 42 -233 -137 c-129 -75 -246
-143 -261 -151 -15 -8 -30 -19 -34 -24 -9 -14 -9 -603 0 -617 3 -6 19 -17 34
-25 15 -8 130 -74 257 -147 126 -73 234 -133 240 -133 5 0 35 15 65 33 30 18
75 44 99 58 25 13 122 68 215 122 94 53 181 102 193 108 20 11 25 6 72 -77 28
-48 51 -93 51 -98 0 -5 -57 -41 -127 -81 -71 -40 -139 -79 -153 -87 -164 -98
-416 -235 -426 -231 -7 3 -89 49 -181 102 -92 54 -255 147 -360 208 l-193 110
0 442 0 442 117 70 c65 38 138 81 163 94 25 14 137 80 250 147 113 66 208 121
211 121 4 0 67 -34 140 -76z m-83 -370 c26 -14 100 -56 164 -92 l117 -67 -40
-76 c-65 -124 -48 -120 -180 -50 -129 67 -107 67 -221 2 l-58 -33 0 -103 0
-103 81 -51 80 -51 116 60 c63 33 119 58 123 55 4 -3 28 -45 53 -94 l45 -89
-154 -87 c-85 -48 -163 -89 -174 -92 -12 -3 -36 5 -58 20 -20 13 -103 64 -184
112 -82 48 -149 90 -149 94 -7 37 -2 447 6 454 19 18 360 215 373 216 7 1 34
-11 60 -25z"/>
</g>
</svg>
